<?xml version="1.0" encoding="UTF-8"?>
<svg xmlns="http://www.w3.org/2000/svg" xmlns:xlink="http://www.w3.org/1999/xlink" width="52pt" height="52pt" viewBox="0 0 52 52" version="1.1">
<g id="surface1">
<path style=" stroke:none;fill-rule:nonzero;fill:#FFFFFF;fill-opacity:1;" d="M 26 0 C 11.664063 0 0 11.664063 0 26 C 0 40.335938 11.664063 52 26 52 C 40.335938 52 52 40.335938 52 26 C 52 11.664063 40.335938 0 26 0 Z M 26 4 C 38.171875 4 48 13.828125 48 26 C 48 31.71875 45.8125 36.90625 42.25 40.8125 C 40.75 38.054688 36.335938 35.789063 31.625 34.8125 C 31.625 34.8125 29.375 34.203125 30.375 32 C 31.773438 30.203125 32.625 28.226563 32.625 27.625 C 32.625 27.625 34.609375 26.023438 34.8125 23.625 C 35.015625 21.421875 34.375 21.1875 34.375 21.1875 C 35.171875 18.585938 35.390625 8.796875 29.1875 10 C 28.1875 8 21.625 6.414063 18.625 11.8125 C 17.226563 14.414063 16.601563 18.203125 18 21 C 18 21.203125 17.578125 20.789063 17.375 22.1875 C 17.375 23.585938 18.023438 25.578125 18.625 26.375 C 18.828125 26.773438 19.226563 26.984375 19.625 27.1875 C 19.625 27.1875 20.015625 29.609375 21.8125 31.8125 C 22.210938 33.609375 20.375 34.625 20.375 34.625 C 15.5 35.601563 11.070313 37.867188 9.5625 40.625 C 6.101563 36.742188 4 31.625 4 26 C 4 13.828125 13.828125 4 26 4 Z "/>
</g>
</svg>
