<svg xmlns="http://www.w3.org/2000/svg" xmlns:xlink="http://www.w3.org/1999/xlink" width="176" height="149" viewBox="0 0 176 149"><defs><clipPath id="a"><rect width="176" height="149" fill="#fff"/></clipPath></defs><g clip-path="url(#a)"><g transform="translate(21.342 0)"><path d="M160.763,19.605H27.447L39.211,152.921l54.895,15.684L149,152.921Z" transform="translate(-27.447 -19.605)" fill="#0277bd"/><path d="M94.105,31.368V156.444L138.018,143.9l9.8-112.531Z" transform="translate(-27.447 -19.605)" fill="#039be5"/><path d="M129.793,50.974H94.105V66.658h19.207l-1.164,15.684H94.105V98.026h17.246l-1.164,17.645-16.083,5.483v16.481l30.97-10.2,2.757-45.092Z" transform="translate(-27.447 -19.605)" fill="#fff"/><path d="M94.105,50.974V66.658H59.214L58.035,50.974ZM76.062,82.342l.8,15.684H94.105V82.342Zm1.578,23.526H61.956l1.179,21.566,30.97,10.2V121.154l-16.083-5.483Z" transform="translate(-27.447 -19.605)" fill="#eee"/></g></g></svg>