<svg xmlns="http://www.w3.org/2000/svg" xmlns:xlink="http://www.w3.org/1999/xlink" width="176" height="149" viewBox="0 0 176 149"><defs><clipPath id="a"><rect width="176" height="149" fill="#fff"/></clipPath></defs><g clip-path="url(#a)"><g transform="translate(21.342 0)"><path d="M160.763,19.605H27.447L39.211,152.921l54.895,15.684L149,152.921Z" transform="translate(-27.447 -19.605)" fill="#e65100"/><path d="M94.105,31.368V156.444L138.018,143.9l9.8-112.531Z" transform="translate(-27.447 -19.605)" fill="#ff6d00"/><path d="M94.105,98.026V82.342h33.727l-2.757,45.092-30.97,10.2V121.154l16.083-5.483,1.164-17.645ZM129,66.658l1.179-15.684H94.105V66.658Z" transform="translate(-27.447 -19.605)" fill="#fff"/><path d="M94.105,121.154v16.481l-30.97-10.2-1.578-21.566H77.242l.781,9.8ZM74.9,66.658H94.105V50.974H58.417l2.757,47.053H94.105V82.342H76.062Z" transform="translate(-27.447 -19.605)" fill="#eee"/></g></g></svg>